<svg xmlns="http://www.w3.org/2000/svg" xmlns:xlink="http://www.w3.org/1999/xlink" width="1366" zoomAndPan="magnify" viewBox="0 0 1024.5 576" height="768" preserveAspectRatio="xMidYMid meet" version="1.0"><defs><clipPath id="741a31bbe1"><path d="M 0 0.140625 L 1024 0.140625 L 1024 575.859375 L 0 575.859375 Z M 0 0.140625 " clip-rule="nonzero"/></clipPath><clipPath id="ac5d5fb6e7"><path d="M 0 0.140625 L 323 0.140625 L 323 575.859375 L 0 575.859375 Z M 0 0.140625 " clip-rule="nonzero"/></clipPath></defs><g clip-path="url(#741a31bbe1)"><path fill="#ffffff" d="M 0 0.140625 L 1024.5 0.140625 L 1024.5 583.640625 L 0 583.640625 Z M 0 0.140625 " fill-opacity="1" fill-rule="nonzero"/><path fill="#ffffff" d="M 0 0.140625 L 1024.5 0.140625 L 1024.5 576.140625 L 0 576.140625 Z M 0 0.140625 " fill-opacity="1" fill-rule="nonzero"/><path fill="#ffffff" d="M 0 0.140625 L 1024.5 0.140625 L 1024.5 576.140625 L 0 576.140625 Z M 0 0.140625 " fill-opacity="1" fill-rule="nonzero"/></g><g clip-path="url(#ac5d5fb6e7)"><path fill="#f6f6f6" d="M -10.785156 594.171875 L -11.371094 -77.429688 L 281.921875 -74.925781 C 281.921875 -74.925781 280.417969 -55.894531 268.390625 -31.855469 C 257.273438 -9.640625 218.234375 80.648438 299.464844 259.609375 C 360.613281 394.324219 279.917969 504.5 286.523438 594.640625 Z M -10.785156 594.171875 " fill-opacity="1" fill-rule="nonzero"/></g></svg>